<?xml version="1.0" encoding="utf-8"?>
<svg width="600" height="600" viewBox="0 0 600 600" xmlns="http://www.w3.org/2000/svg" role="img" aria-label="Compressive Framework logo - tri fractal dark">
  <defs>
    <radialGradient id="gradB" cx="50%" cy="30%">
      <stop offset="0%" stop-color="#00121a"/>
      <stop offset="60%" stop-color="#002a3a"/>
      <stop offset="100%" stop-color="#000814"/>
    </radialGradient>
    <filter id="g2" x="-50%" y="-50%" width="200%" height="200%">
      <feGaussianBlur stdDeviation="6" result="b"/>
      <feMerge><feMergeNode in="b"/><feMergeNode in="SourceGraphic"/></feMerge>
    </filter>
  </defs>

  <rect width="600" height="600" rx="28" fill="url(#gradB)"/>

  <g transform="translate(300,300)" filter="url(#g2)">
    <g fill="none" stroke="#5ff3ff" stroke-width="5" stroke-linecap="round" stroke-linejoin="round" opacity="0.92">
      <path d="M -140 0 A 140 140 0 0 1 70 -120" />
      <path d="M -60 110 C -10 30 30 -30 100 -60" stroke-opacity="0.6"/>
    </g>

    <g stroke="#00f0ff" stroke-width="4.2" fill="none" stroke-linecap="round">
      <path d="M 0 0 C 40 -6 120 -18 155 -70 C 170 -96 190 -126 170 -154" opacity="0.98"/>
    </g>

    <g transform="rotate(120)" stroke="#00cfff" stroke-width="3.6" fill="none" stroke-linecap="round">
      <path d="M 0 0 C 40 -6 120 -18 155 -70 C 170 -96 190 -126 170 -154" opacity="0.9"/>
    </g>

    <g transform="rotate(240)" stroke="#00b8d0" stroke-width="3.1" fill="none" stroke-linecap="round">
      <path d="M 0 0 C 40 -6 120 -18 155 -70 C 170 -96 190 -126 170 -154" opacity="0.86"/>
    </g>

    <g>
      <circle r="14" fill="#c7ffff" />
      <circle r="30" fill="none" stroke="#8ff6ff" stroke-width="1.6" opacity="0.9"/>
    </g>
  </g>

  <text x="36" y="560" font-family="Inter, Arial, sans-serif" font-size="20" fill="#bfeeff" opacity="0.95">Compressive Framework (CF)</text>
</svg>
